<svg xmlns="http://www.w3.org/2000/svg" viewBox="0 0 1000 600"><defs><style>.cls-1{fill:#4a75c9;}.cls-2{fill:#bedce0;}.cls-10,.cls-13,.cls-15,.cls-17,.cls-26,.cls-27,.cls-28,.cls-29,.cls-3,.cls-30,.cls-31,.cls-32,.cls-33,.cls-34,.cls-35,.cls-36{fill:none;}.cls-3,.cls-30,.cls-34{stroke:#bedce0;}.cls-10,.cls-15,.cls-17,.cls-26,.cls-27,.cls-28,.cls-29,.cls-3,.cls-30,.cls-32,.cls-34,.cls-35,.cls-36{stroke-miterlimit:10;}.cls-3{stroke-width:0.83px;}.cls-4{fill:#1b2536;}.cls-5{fill:#d68d8d;}.cls-6{fill:#fff;}.cls-7{fill:#ebbc3b;}.cls-8{fill:#365896;}.cls-9{fill:#d9956a;}.cls-10{stroke:#422424;stroke-width:0.39px;}.cls-11{fill:#422424;}.cls-12{fill:#943232;}.cls-13{stroke:#365896;stroke-width:0.75px;}.cls-13,.cls-31,.cls-33{stroke-linecap:round;stroke-linejoin:round;}.cls-14{fill:#d65353;}.cls-15,.cls-33{stroke:#1b2536;}.cls-15,.cls-17{stroke-width:0.43px;}.cls-16{fill:#edd1c2;}.cls-17,.cls-27,.cls-31,.cls-36{stroke:#fff;}.cls-18{fill:#d4780e;}.cls-19{fill:#4a6cab;}.cls-20{fill:#6e9296;}.cls-21{fill:#496163;}.cls-22{fill:#6b89bf;}.cls-23{fill:#28364f;}.cls-24{fill:#6e4c2e;}.cls-25{fill:#de6767;}.cls-26{stroke:#000;}.cls-26,.cls-27{stroke-width:0.44px;}.cls-28{stroke:#943232;}.cls-29{stroke:#28364f;stroke-width:1.25px;}.cls-30{stroke-width:1.24px;}.cls-31{stroke-width:2px;}.cls-32{stroke:#d4780e;stroke-width:3px;}.cls-33,.cls-35,.cls-36{stroke-width:0.75px;}.cls-35{stroke:#4a75c9;}</style></defs><g id="BACKGROUND"><rect class="cls-1" width="1000" height="600"/></g><g id="OBJECTS"><path class="cls-2" d="M530.4,537v12.13h44.08a22.93,22.93,0,0,1,45.86,0h44.08V537H643.14a46.43,46.43,0,0,0-4.75-11.46l15.05-15.05-17.3-17.29-15,15a47.37,47.37,0,0,0-11.46-4.75V482.25H585.18v21.27a47.21,47.21,0,0,0-11.46,4.75l-15.05-15-17.29,17.29,15,15.05A47.21,47.21,0,0,0,551.67,537Z" transform="translate(0 0)"/><path class="cls-3" d="M156.32,549.16S161.65,220.39,226,217.91,249.73,488,287.55,488s39.82-158.43,80.91-158.43,22.72,170.35,54.8,170.35,18.37-197.48,53.87-197.48c41,0,25.66,169.24,50.73,169.24,39.1,0,13-265.68,85.22-265.68,77.2,0,47.79,309.61,82.4,309.61s22.87-233.08,83-233.08c50.13,0,56.15,266.63,56.15,266.63" transform="translate(0 0)"/><path class="cls-1" d="M188.9,291.49a6.71,6.71,0,1,1-6.7-6.7A6.7,6.7,0,0,1,188.9,291.49Z" transform="translate(0 0)"/><path class="cls-1" d="M405.83,414.12a6.71,6.71,0,1,1-6.71-6.7A6.71,6.71,0,0,1,405.83,414.12Z" transform="translate(0 0)"/><path class="cls-1" d="M537.11,471.94a6.71,6.71,0,1,1-6.71-6.71A6.71,6.71,0,0,1,537.11,471.94Z" transform="translate(0 0)"/><path class="cls-1" d="M594.61,220.6a6.71,6.71,0,1,1-6.7-6.71A6.71,6.71,0,0,1,594.61,220.6Z" transform="translate(0 0)"/><path class="cls-1" d="M740.15,361.83a6.71,6.71,0,1,1-6.71-6.7A6.7,6.7,0,0,1,740.15,361.83Z" transform="translate(0 0)"/><circle class="cls-1" cx="819.43" cy="375.57" r="6.71"/><rect class="cls-4" x="701.33" y="202.96" width="101.88" height="73.97" rx="5.46"/><path class="cls-5" d="M766.62,218.67h20.5a1.5,1.5,0,0,0,1.5-1.5h0a1.5,1.5,0,0,0-1.5-1.5h-20.5a1.5,1.5,0,0,0-1.5,1.5h0A1.5,1.5,0,0,0,766.62,218.67Z" transform="translate(0 0)"/><path class="cls-6" d="M750.62,224.36h36.5a1.5,1.5,0,0,0,1.5-1.5h0a1.5,1.5,0,0,0-1.5-1.5h-36.5a1.5,1.5,0,0,0-1.5,1.5h0A1.5,1.5,0,0,0,750.62,224.36Z" transform="translate(0 0)"/><path class="cls-2" d="M727.1,224.36h17.5a1.5,1.5,0,0,0,1.5-1.5h0a1.5,1.5,0,0,0-1.5-1.5H727.1a1.5,1.5,0,0,0-1.5,1.5h0A1.5,1.5,0,0,0,727.1,224.36Z" transform="translate(0 0)"/><rect class="cls-7" x="723.08" y="227.06" width="65.54" height="3" rx="1.07" transform="translate(1511.7 457.11) rotate(-180)"/><path class="cls-1" d="M782.52,235.75h4.6a1.5,1.5,0,0,0,1.5-1.5h0a1.5,1.5,0,0,0-1.5-1.5h-4.6a1.5,1.5,0,0,0-1.5,1.5h0A1.5,1.5,0,0,0,782.52,235.75Z" transform="translate(0 0)"/><path class="cls-2" d="M745.08,235.75h31.38a1.5,1.5,0,0,0,1.5-1.5h0a1.5,1.5,0,0,0-1.5-1.5H745.08a1.5,1.5,0,0,0-1.49,1.5h0A1.5,1.5,0,0,0,745.08,235.75Z" transform="translate(0 0)"/><path class="cls-6" d="M766.62,241.44h20.5a1.5,1.5,0,0,0,1.5-1.49h0a1.5,1.5,0,0,0-1.5-1.5h-20.5a1.5,1.5,0,0,0-1.5,1.5h0A1.5,1.5,0,0,0,766.62,241.44Z" transform="translate(0 0)"/><path class="cls-7" d="M736.6,247.14h50.52a1.5,1.5,0,0,0,1.5-1.5h0a1.5,1.5,0,0,0-1.5-1.5H736.6a1.5,1.5,0,0,0-1.5,1.5h0A1.5,1.5,0,0,0,736.6,247.14Z" transform="translate(0 0)"/><path class="cls-6" d="M723.83,252.83h63.29a1.5,1.5,0,0,0,1.5-1.5h0a1.5,1.5,0,0,0-1.5-1.49H723.83a1.5,1.5,0,0,0-1.5,1.49h0A1.5,1.5,0,0,0,723.83,252.83Z" transform="translate(0 0)"/><path class="cls-1" d="M753.61,258.53h33.51a1.5,1.5,0,0,0,1.5-1.5h0a1.5,1.5,0,0,0-1.5-1.5H753.61a1.5,1.5,0,0,0-1.5,1.5h0A1.5,1.5,0,0,0,753.61,258.53Z" transform="translate(0 0)"/><path class="cls-2" d="M723.83,258.53h21.52a1.5,1.5,0,0,0,1.5-1.5h0a1.5,1.5,0,0,0-1.5-1.5H723.83a1.5,1.5,0,0,0-1.5,1.5h0A1.5,1.5,0,0,0,723.83,258.53Z" transform="translate(0 0)"/><path class="cls-5" d="M766.62,264.22h20.5a1.5,1.5,0,0,0,1.5-1.5h0a1.5,1.5,0,0,0-1.5-1.5h-20.5a1.5,1.5,0,0,0-1.5,1.5h0A1.5,1.5,0,0,0,766.62,264.22Z" transform="translate(0 0)"/><path class="cls-8" d="M333.19,210.71A8.35,8.35,0,0,0,338.66,200c-1.35-4.17-8.17-5.13-20.85-.34s-21.81,4.29-22.6,8.4,2.6,6.14,8.8,5.35l5.49,12.85Z" transform="translate(0 0)"/><polygon class="cls-4" points="341.99 341.69 379.17 531.14 353.82 531.14 310.54 372.88 257.9 528.4 234.08 528.4 275.38 341.69 341.99 341.69"/><path class="cls-9" d="M317.25,209.69,333.53,207a56.45,56.45,0,0,1,1.07,10.32,12.88,12.88,0,0,1,2.82,8.79c-.17,5.57-3.21,10.59-8.79,11.66l.11,10.26H308.85l2.87-25.36S318.37,221.07,317.25,209.69Z" transform="translate(0 0)"/><path class="cls-9" d="M315.3,227.27c-1.24,2.89-4.94,4.07-8.25,2.64s-5-4.93-3.75-7.82,4.94-4.06,8.26-2.63S316.55,224.38,315.3,227.27Z" transform="translate(0 0)"/><path class="cls-10" d="M305.41,222.82s5.19-3,8.17,3.44" transform="translate(0 0)"/><line class="cls-10" x1="308.01" y1="225.92" x2="308.85" y2="222.15"/><path class="cls-10" d="M327.39,237.87a13.19,13.19,0,0,1-9.86-3.22" transform="translate(0 0)"/><path class="cls-10" d="M326.5,215.1a9.65,9.65,0,0,0,1.89,5.58.74.74,0,0,1-.21,1.15l-1.68.88" transform="translate(0 0)"/><path class="cls-11" d="M323.5,224.68h8.28s-2.64,7.16-4.62,7.21S323.5,224.68,323.5,224.68Z" transform="translate(0 0)"/><path class="cls-12" d="M326.79,227.23a8.81,8.81,0,0,0-2.46.34c.68,2,1.71,4.36,2.83,4.32s2.26-2,3.19-3.91A8.51,8.51,0,0,0,326.79,227.23Z" transform="translate(0 0)"/><path class="cls-4" d="M321.42,214.65c-.77.1-1.17,1.52-.9,3.16a5.41,5.41,0,0,0,.4,1.36l1.12-.76s-.28.87-.57,1.69a1.08,1.08,0,0,0,.93.49c.77-.1,1.18-1.52.91-3.16S322.19,214.54,321.42,214.65Z" transform="translate(0 0)"/><path class="cls-4" d="M330.2,213.46c-.77.11-1.18,1.52-.91,3.17a6.39,6.39,0,0,0,.4,1.36l1.13-.76s-.29.87-.58,1.69a1.13,1.13,0,0,0,.93.49c.77-.1,1.18-1.52.91-3.16S331,213.36,330.2,213.46Z" transform="translate(0 0)"/><path class="cls-13" d="M318.06,212.79a8.49,8.49,0,0,1,5.08,0" transform="translate(0 0)"/><path class="cls-13" d="M328,212a6.64,6.64,0,0,1,4.54-.85" transform="translate(0 0)"/><path class="cls-14" d="M309.69,244h19.19a3,3,0,0,1,2.95,2.33l.71,3,25.67,9.06,22.2,37,9.69-11.5,15.56,6.63-9.43,24.16a17.65,17.65,0,0,1-26.43,8.12L349,308.46l-4,24.86s14.2,12.13-1.69,12.13H276a2.88,2.88,0,0,1-2.82-3.46L291,254.57l15-5.77.74-2.63A3,3,0,0,1,309.69,244Z" transform="translate(0 0)"/><line class="cls-15" x1="380.41" y1="295.34" x2="370.64" y2="307.88"/><line class="cls-15" x1="349.02" y1="308.46" x2="352.01" y2="288.6"/><polygon class="cls-16" points="388.58 298.51 325.53 298.51 336.07 248.07 399.12 248.07 388.58 298.51"/><path class="cls-17" d="M388.75,258.31H342.16a1.48,1.48,0,0,1-1.48-1.87h0a2.44,2.44,0,0,1,2.26-1.87h46.59a1.47,1.47,0,0,1,1.47,1.87h0A2.41,2.41,0,0,1,388.75,258.31Z" transform="translate(0 0)"/><path class="cls-17" d="M387,266.82H340.38a1.47,1.47,0,0,1-1.47-1.87h0a2.41,2.41,0,0,1,2.25-1.87h46.59a1.48,1.48,0,0,1,1.48,1.87h0A2.44,2.44,0,0,1,387,266.82Z" transform="translate(0 0)"/><path class="cls-17" d="M373.08,275.33H338.6a1.47,1.47,0,0,1-1.47-1.87h0a2.4,2.4,0,0,1,2.25-1.87h34.48a1.48,1.48,0,0,1,1.48,1.87h0A2.44,2.44,0,0,1,373.08,275.33Z" transform="translate(0 0)"/><path class="cls-17" d="M383.41,283.84H336.82a1.47,1.47,0,0,1-1.47-1.87h0a2.43,2.43,0,0,1,2.26-1.88H384.2a1.47,1.47,0,0,1,1.47,1.88h0A2.44,2.44,0,0,1,383.41,283.84Z" transform="translate(0 0)"/><path class="cls-17" d="M363.44,292.35H335.05a1.48,1.48,0,0,1-1.48-1.88h0a2.44,2.44,0,0,1,2.26-1.87h28.39a1.48,1.48,0,0,1,1.48,1.87h0A2.43,2.43,0,0,1,363.44,292.35Z" transform="translate(0 0)"/><path class="cls-4" d="M278.12,317.65s28-12.74,45.72-17.46c-6.95,12.75-27.46,28.6-40.37,37.76a5.39,5.39,0,0,1-8.39-5.48Z" transform="translate(0 0)"/><path class="cls-14" d="M291,254.57c-7.32,2.23-13.52,6.85-23.1,17.78s-30.09,31.17-19.61,48c12.29,19.72,58.15-6.65,75.51-20.17l-9-17-29.18,8.57,11-16.41Z" transform="translate(0 0)"/><path class="cls-15" d="M268.62,288.6s4.82-1,13.86,1.87" transform="translate(0 0)"/><path class="cls-9" d="M314.82,283.17l7.22-2.59,6.68-14.11a5.34,5.34,0,0,1,3.56-2.89l9.25-2.26a2.87,2.87,0,0,1,3.54,2.46l.76,6.3a2.32,2.32,0,0,1-1.46,2.43l-7.28,2.82s6.3,1,9,1.36c.38.05.38,1.46,0,1.52a63.58,63.58,0,0,1-9,.17s-4.23,8.2-10.07,8.37l-7.33,5.6Z" transform="translate(0 0)"/><line class="cls-10" x1="332.04" y1="268.24" x2="345.07" y2="264.71"/><line class="cls-10" x1="333.01" y1="271.59" x2="345.6" y2="268.17"/><path class="cls-9" d="M402.25,289V278.8l1.68-8.48a4.62,4.62,0,0,0-1.94-4.73l-7.6-5.14a1.58,1.58,0,0,0-2.42.92L389,273a1.56,1.56,0,0,0,.69,1.69l3.43,2.09-1.6,7.65Z" transform="translate(0 0)"/><line class="cls-10" x1="393.12" y1="276.79" x2="396.87" y2="279.06"/><line class="cls-10" x1="389.66" y1="270.45" x2="397.99" y2="275.33"/><line class="cls-10" x1="390.48" y1="266.82" x2="398.82" y2="271.7"/><line class="cls-10" x1="391.54" y1="263.36" x2="399.88" y2="268.24"/><line class="cls-15" x1="337.09" y1="313.33" x2="313.4" y2="328.27"/><polygon class="cls-4" points="253.74 525.69 255.83 534.48 279.44 544.85 280.56 550 229.4 550 238.19 525.69 253.74 525.69"/><path class="cls-4" d="M304,213.41c3.19-.13,8.4-2.35,8.4-2.35l-6.35,7.16Z" transform="translate(0 0)"/><polyline class="cls-15" points="263.21 298.53 314.82 283.17 323.84 300.19"/><line class="cls-15" x1="285.64" y1="291.74" x2="298.65" y2="272.89"/><path class="cls-18" d="M843.66,473.17V444H818.31a56.24,56.24,0,0,0-5.66-13.66l17.93-17.93L810,391.82,792,409.75a56.24,56.24,0,0,0-13.66-5.66V378.74H749.23v25.35a56.24,56.24,0,0,0-13.66,5.66l-17.93-17.93L697,412.43,715,430.36A55.85,55.85,0,0,0,709.3,444H684v29.15H709.3A55.85,55.85,0,0,0,715,486.83L697,504.76l20.61,20.61,17.93-17.93a55.85,55.85,0,0,0,13.66,5.66v25.35h29.15V513.1A55.85,55.85,0,0,0,792,507.44L810,525.37l20.61-20.61-17.93-17.93a56.24,56.24,0,0,0,5.66-13.66ZM791.13,458.6a27.33,27.33,0,1,1-27.33-27.33A27.37,27.37,0,0,1,791.13,458.6Z" transform="translate(0 0)"/><path class="cls-4" d="M686.73,233l-3.38,13.3s-7.53-8.37-7-14.61Z" transform="translate(0 0)"/><path class="cls-5" d="M616,516.85l-1.86,11.94-19.55,9.1a7.24,7.24,0,0,0-3.74,4l-2.92,7.85h46l-2.51-19.92,1.37-13Z" transform="translate(0 0)"/><path class="cls-4" d="M620.86,529h0a4.74,4.74,0,0,0-4.73-4.74h-1.31l-.7,4.51-19.55,9.1a7.24,7.24,0,0,0-3.74,4l-2.92,7.85h46l-2.51-19.92.08-.84Z" transform="translate(0 0)"/><polygon class="cls-19" points="587.91 549.78 633.95 549.78 633.38 545.24 589.6 545.24 587.91 549.78"/><path class="cls-5" d="M720.37,516.85l.84,11.95-19.65,8.9a7.22,7.22,0,0,0-3.77,4l-3,8.3h46l-2.31-20-1.31-13Z" transform="translate(0 0)"/><path class="cls-4" d="M738.51,530.05l-.12-1.2H726.68l-.09-.67a4.75,4.75,0,0,0-4.69-4.07h-1l.33,4.69-19.65,8.9a7.22,7.22,0,0,0-3.77,4l-3,8.3h46Z" transform="translate(0 0)"/><polygon class="cls-19" points="694.78 550 740.82 550 740.29 545.45 696.52 544.99 694.78 550"/><path class="cls-4" d="M625.1,402.45H594.44l3.94-14.9h22.78Zm-26-3.6h21.3l-2-7.7H601.16Z" transform="translate(0 0)"/><path class="cls-20" d="M575.29,406.85h68a0,0,0,0,1,0,0v32.66a4.25,4.25,0,0,1-4.25,4.25H579.54a4.25,4.25,0,0,1-4.25-4.25V406.85A0,0,0,0,1,575.29,406.85Z"/><path class="cls-21" d="M578.25,397.09h62.08a5.19,5.19,0,0,1,5.19,5.19v10a2.38,2.38,0,0,1-2.38,2.38h-67.7a2.38,2.38,0,0,1-2.38-2.38v-10A5.19,5.19,0,0,1,578.25,397.09Z"/><rect class="cls-6" x="584.15" y="406.85" width="5.73" height="7.83"/><rect class="cls-6" x="628.7" y="406.85" width="5.73" height="7.83"/><rect class="cls-15" x="584.15" y="406.85" width="5.73" height="15.62"/><rect class="cls-15" x="628.7" y="406.85" width="5.73" height="15.62"/><path class="cls-19" d="M653.2,343.24v15.1l-28.27,67.93a57.59,57.59,0,0,0-4,15.25l-9.42,78.88H637.2L649,455.5a78.24,78.24,0,0,1,4.8-16.19l23.76-60.57h5.32l33,141.66h24.57L717.67,357.21l-1.36-15.1Z" transform="translate(0 0)"/><line class="cls-15" x1="653.2" y1="350" x2="717.02" y2="350"/><line class="cls-15" x1="680.2" y1="378.74" x2="678.17" y2="344.93"/><path class="cls-15" d="M672.59,345.6l1.13,16.53a5.37,5.37,0,0,0,5.36,5h.42" transform="translate(0 0)"/><path class="cls-15" d="M703.81,345.6s-2,20.85,15.24,21.53" transform="translate(0 0)"/><path class="cls-15" d="M661.21,346.28s.46,20.58-11.89,21.39" transform="translate(0 0)"/><line class="cls-15" x1="664.59" y1="378.74" x2="695.01" y2="379.19"/><polyline class="cls-15" points="671.46 379.19 643.74 443.76 632.24 515.89"/><line class="cls-15" x1="714.21" y1="366.28" x2="733.44" y2="515.89"/><polygon class="cls-4" points="653.21 347.84 717.59 356.37 716.31 342.11 653.21 343.24 653.21 347.84"/><path class="cls-5" d="M634.05,309.77l-3.5,17.35L606.66,375l-4.38,15.18a2.5,2.5,0,0,0,2.4,3.19h10.05a2.69,2.69,0,0,0,2.67-3l-1-10,38.55-45.87.22-24.79Z" transform="translate(0 0)"/><path class="cls-10" d="M608.92,378.74s2.18,4.84-.4,11.94H611a2.62,2.62,0,0,1,2.61,2.64v.07" transform="translate(0 0)"/><line class="cls-10" x1="609.76" y1="386.06" x2="616.79" y2="386.06"/><line class="cls-10" x1="613.93" y1="386.06" x2="615.52" y2="393.26"/><line class="cls-10" x1="611.09" y1="386.06" x2="612.16" y2="390.94"/><path class="cls-4" d="M632.31,318.39s6,4.23,22.66,7.83l.15-16.45H634.05Z" transform="translate(0 0)"/><path class="cls-20" d="M676.31,261.67s22.48.2,33.47,6.06,29.07,41.36,29.07,41.36l-21.63,1.35L721.68,342a3.75,3.75,0,0,1-3.72,4.28H649.82c-6.87,0,2.15-5.63,2.15-5.63l-2-24.91s-15.1,2.93-23.89-.9l13.83-35.7a22,22,0,0,1,16.44-13.68Z" transform="translate(0 0)"/><polygon class="cls-21" points="683.23 256.29 689.35 262.56 678.76 275.11 673.18 268.61 669.63 274.61 661.9 263.96 666.84 259.05 683.23 256.29"/><line class="cls-15" x1="705.36" y1="311.12" x2="701.33" y2="286.44"/><line class="cls-15" x1="649.94" y1="315.74" x2="647.4" y2="286.44"/><line class="cls-15" x1="674.06" y1="271.32" x2="680.2" y2="343.24"/><polygon class="cls-6" points="701.59 338.17 663.72 338.17 658.81 293.38 696.68 293.38 701.59 338.17"/><path class="cls-18" d="M680.18,292.36a2.94,2.94,0,0,0-2.81-2.34,2.25,2.25,0,0,0-2.29,2.34h-3.83l.34,3.12h12.77l-.35-3.12Z" transform="translate(0 0)"/><polygon class="cls-22" points="715.86 520.4 740.43 520.4 739.44 513.3 714.21 513.3 715.86 520.4"/><polygon class="cls-22" points="638.49 513.3 612.36 513.3 611.51 520.4 637.2 520.4 638.49 513.3"/><path class="cls-5" d="M734.29,309.38l-28.93,1.74.73,5.76L678.41,312a15.28,15.28,0,0,0-11.77-8.46.46.46,0,0,0-.29.85,8.78,8.78,0,0,1,3.7,4.15l-7.38.29-3.51-.8a.91.91,0,0,0-1.11,1l.76,8.48a2.35,2.35,0,0,0,1.91,2.09,41.82,41.82,0,0,0,6.57.53c5.58,2.64,9.81,1.85,9.81,1.85A113.47,113.47,0,0,0,715,339C736.54,344,738.06,327.63,734.29,309.38Z" transform="translate(0 0)"/><path class="cls-10" d="M658.2,310.91a23.63,23.63,0,0,0,8.11,1.2" transform="translate(0 0)"/><path class="cls-10" d="M658.43,313.59a23.65,23.65,0,0,0,8.12,1.2" transform="translate(0 0)"/><path class="cls-10" d="M658.66,316.28a23.71,23.71,0,0,0,8.12,1.2" transform="translate(0 0)"/><line class="cls-10" x1="706.09" y1="316.88" x2="720.2" y2="318.95"/><path class="cls-5" d="M660.08,229.42s-1.35,8.9-2.59,15.21,1.35,11.94,9.35,11.61v5.07l6.31,6.42,10.71-8.79-.68-17.47s-5.63-1.69-5-9.91Z" transform="translate(0 0)"/><path class="cls-10" d="M667.91,256.29s6,.06,9.13-5" transform="translate(0 0)"/><path class="cls-5" d="M686.44,245.91c-1.83,2.27-4.75,3-6.52,1.54s-1.73-4.42.09-6.7,4.75-3,6.52-1.53S688.26,243.64,686.44,245.91Z" transform="translate(0 0)"/><path class="cls-10" d="M680.2,244.24c.33-2.37,4.28-4.75,5.83-2.38" transform="translate(0 0)"/><line class="cls-10" x1="683.95" y1="244.5" x2="681.78" y2="241.82"/><path class="cls-23" d="M663.56,238.92l.84.4a6,6,0,0,0,.18-.9c.16-1.52-.3-2.76-1-2.77s-1.46,1.19-1.62,2.71.3,2.75,1,2.77c.46,0,.91-.46,1.23-1.18Z" transform="translate(0 0)"/><path class="cls-23" d="M671.43,239.09l.84.41a6.13,6.13,0,0,0,.17-.91c.17-1.51-.3-2.75-1-2.77s-1.45,1.2-1.61,2.71.3,2.76,1,2.77c.45,0,.91-.46,1.22-1.18Z" transform="translate(0 0)"/><polyline class="cls-10" points="666.5 238.81 664.94 244.85 669.12 244.5"/><path class="cls-10" d="M663.88,247.64a9.54,9.54,0,0,0,8.41-2.15" transform="translate(0 0)"/><path class="cls-1" d="M660,229.58,687,233s3.27-12.71-11.39-14.69C663.79,216.72,660.44,226.45,660,229.58Z" transform="translate(0 0)"/><path class="cls-20" d="M676.18,218.4c-.19,0-.37-.06-.56-.09-11.83-1.59-15.18,8.14-15.67,11.27l13,1.65Z" transform="translate(0 0)"/><path class="cls-4" d="M673,231.23,647.57,228h0a2.39,2.39,0,0,1,2.66-2l23.25,2.93Z" transform="translate(0 0)"/><path class="cls-24" d="M259.49,332.92s-3.33-4.92-10.34-3.07-7.35,7.78-7.35,10.57.34,6.76-4.48,7-6,4.22-6,6.5-.34,5.92-3.38,7.53H252.7Z" transform="translate(0 0)"/><path class="cls-4" d="M253.87,356.54l5.25-22.08a15,15,0,0,0-3.78,2.85C248,344.87,250.85,352.54,253.87,356.54Z" transform="translate(0 0)"/><path class="cls-4" d="M262.61,338.19a5.34,5.34,0,1,1-5.33-5.63A5.49,5.49,0,0,1,262.61,338.19Z" transform="translate(0 0)"/><path class="cls-24" d="M283,342.36c-2.37-9.12-17.07-16.65-26.37-7.1s-2.28,19.27.76,21.56Z" transform="translate(0 0)"/><polygon class="cls-21" points="272.17 484.27 262.3 484.27 283.51 541.13 192.92 541.13 214.13 484.27 204.26 484.27 179.74 550 296.69 550 272.17 484.27"/><path class="cls-25" d="M290.65,512.28l-5.41,20.4,20.63,9.92,2.3.57a6.25,6.25,0,0,1,4.68,6.83H262a2.08,2.08,0,0,1-1.91-2.9l6.3-14.65,5.3-20.17Z" transform="translate(0 0)"/><path class="cls-4" d="M268.94,522.87l-2.52,9.58-6.3,14.65A2.08,2.08,0,0,0,262,550h50.82a6.25,6.25,0,0,0-4.68-6.83l-2.3-.57-20.63-9.92,2.6-9.81Z" transform="translate(0 0)"/><path class="cls-4" d="M331.48,454.73l29.83,60.82H326.38s-5.64-7.66-5.64-15.33-10.9-12.76-12.56-18.93-12.91-21.41-12.91-21.41l-6.77-15.55h26.29A18.58,18.58,0,0,1,331.48,454.73Z" transform="translate(0 0)"/><path class="cls-4" d="M214.13,484.27h-9.87l-7.5,20.12a25,25,0,0,0,8.21,4.43Z" transform="translate(0 0)"/><polygon class="cls-4" points="272.17 484.27 262.3 484.27 271.89 509.97 281.76 509.97 272.17 484.27"/><path class="cls-21" d="M241.48,394.53l39.43,105.69h-68a23.7,23.7,0,0,1-22.21-15.41l-28.41-76.16a10.47,10.47,0,0,1,9.81-14.12Z" transform="translate(0 0)"/><path class="cls-4" d="M276.82,489.26l-35.34-94.73H172.06a10.44,10.44,0,0,0-3.39.57,10.58,10.58,0,0,0,.61,2.59l28.41,76.16a23.71,23.71,0,0,0,22.2,15.41Z" transform="translate(0 0)"/><line class="cls-15" x1="196.58" y1="480.9" x2="219.52" y2="480.9"/><path class="cls-19" d="M263.38,444.33H294a16.38,16.38,0,0,1,15.59,21.41l-16.08,49.81h-34s1.8-7,5.63-10.37-1.11-8.11,1-13.3c1.9-4.6,4.06-5.83,4.84-10.14H212.72c-11.83,0-26.71-17.75-5.24-50.21h52.41l-1,8.63Z" transform="translate(0 0)"/><path class="cls-4" d="M207.7,432.72s36.08,1.59,44.69,11.61h11l-4.51-4.17,1-8.63Z" transform="translate(0 0)"/><line class="cls-15" x1="242.63" y1="444.33" x2="262.14" y2="444.33"/><path class="cls-15" d="M226.3,431.53,220.84,449a4.89,4.89,0,0,0,4.67,6.34h53.66a7.94,7.94,0,0,1,7.63,10.15l-13.39,46.2" transform="translate(0 0)"/><line class="cls-15" x1="295.27" y1="454.52" x2="279.5" y2="464.84"/><line class="cls-15" x1="296.91" y1="457.74" x2="277.35" y2="478.7"/><line class="cls-15" x1="236.75" y1="445.9" x2="214.13" y2="461.46"/><line class="cls-15" x1="228.27" y1="447.26" x2="211.71" y2="452.33"/><path class="cls-26" d="M236.75,405.42c-4.11-8.15-7.29-14.79-7.29-14.79" transform="translate(0 0)"/><path class="cls-9" d="M288.5,398s-5.52-10.19-7.3-13.63-3.65-8.64-18-13.37-33.64-6.09-40.31,11.58-12.34,41.33-12.34,41.33L206,428.62a2.41,2.41,0,0,0,1.73,4.1h53.2Z" transform="translate(0 0)"/><path class="cls-14" d="M288.5,398l9.12,17.05L329.74,429s17.56-1,20.52,8.64H281.2l-15.11-31.5Z" transform="translate(0 0)"/><path class="cls-4" d="M246.7,424.27c-2.87-5.09-14.67-28.36-14.67-28.36l6.75,28.38a11,11,0,0,0,10.67,8.43h3.79A32.25,32.25,0,0,1,246.7,424.27Z" transform="translate(0 0)"/><line class="cls-15" x1="233.11" y1="417.84" x2="214.13" y2="426.74"/><path class="cls-15" d="M268.17,383.19l-1.27,9.55s2,7.07,0,13.13" transform="translate(0 0)"/><path class="cls-25" d="M263.69,350.31l3.85-8.62,15.42.67a10.28,10.28,0,0,1,0,5.08c-.68,3-1.73,4.39-2,8.11s.28,14.62-12.74,13.18l-5.56,9.89s-9.32,2.23-13.46-10.55Z" transform="translate(0 0)"/><path class="cls-25" d="M265,354.38c-.57,2.68-3.49,4.33-6.54,3.68s-5-3.34-4.48-6,3.5-4.33,6.54-3.68S265.57,351.7,265,354.38Z" transform="translate(0 0)"/><path class="cls-10" d="M257.35,350.73s3.25-.9,5.26,3.89" transform="translate(0 0)"/><line class="cls-10" x1="258.2" y1="353.94" x2="260.37" y2="351.5"/><circle class="cls-14" cx="266.9" cy="357.38" r="3.15"/><path class="cls-10" d="M267.24,368.48s-5.58-.89-7.65-4.06" transform="translate(0 0)"/><line class="cls-27" x1="237.46" y1="354.23" x2="234.75" y2="361.47"/><line class="cls-27" x1="242.13" y1="354.23" x2="239.42" y2="361.47"/><line class="cls-27" x1="246.79" y1="354.23" x2="244.09" y2="361.47"/><line class="cls-27" x1="251.46" y1="354.23" x2="248.75" y2="361.47"/><path class="cls-4" d="M278,352.37l-.86.34a5.17,5.17,0,0,1,0-.88c.13-1.46.79-2.62,1.48-2.6s1.14,1.24,1,2.7-.79,2.62-1.48,2.59c-.43,0-.76-.49-.93-1.2Z" transform="translate(0 0)"/><path class="cls-4" d="M270.61,352.08l-.86.34a5.2,5.2,0,0,1,0-.88c.13-1.46.79-2.62,1.47-2.59s1.14,1.23,1,2.69-.79,2.62-1.48,2.59c-.43,0-.76-.49-.92-1.2Z" transform="translate(0 0)"/><path class="cls-26" d="M275.65,350.22s-.64,3,.41,4.82a.64.64,0,0,1-.62,1l-1.9-.15" transform="translate(0 0)"/><path class="cls-10" d="M276.54,358.86a10.84,10.84,0,0,1-7.82-1" transform="translate(0 0)"/><path class="cls-24" d="M268.72,346.13c.52-.8,5.38.43,5.43,1.2S268,347.22,268.72,346.13Z" transform="translate(0 0)"/><path class="cls-24" d="M282.4,347.43c-.44-.84-5.4-.1-5.53.67S283,348.6,282.4,347.43Z" transform="translate(0 0)"/><path class="cls-15" d="M271.16,479.94c.45-5.86-3.61-13.3,3.38-18.48" transform="translate(0 0)"/><path class="cls-22" d="M260.12,547.1A2.08,2.08,0,0,0,262,550h50.82a6.12,6.12,0,0,0-.83-3.91H260.55Z" transform="translate(0 0)"/><path class="cls-22" d="M261.59,510a30.91,30.91,0,0,0-2.15,5.58h34l1.8-5.58Z" transform="translate(0 0)"/><path class="cls-25" d="M262.61,395.91l10.8,21.93,45.64,14.54s15.38-3.72,23.67,5.58H270.87c-8.45,0-16.73-.51-24.17-13.69-3.2-5.68-6.84-12.7-9.95-18.85Z" transform="translate(0 0)"/><line class="cls-15" x1="251.26" y1="372.88" x2="262.61" y2="395.91"/><circle class="cls-28" cx="257.71" cy="358.11" r="1.57"/><polygon class="cls-21" points="415.18 549.26 289 549.26 327.05 447.25 415.18 447.25 415.18 549.26"/><polygon class="cls-4" points="324.73 453.48 415.18 486.47 415.18 447.25 327.05 447.25 324.73 453.48"/><path class="cls-21" d="M415.18,449.06H279a5.55,5.55,0,0,1-5.55-5.55h0A5.54,5.54,0,0,1,279,438H415.18Z" transform="translate(0 0)"/><line class="cls-29" x1="132.95" y1="550" x2="867.05" y2="550"/><path class="cls-30" d="M311,113.68H225.18a6.13,6.13,0,0,0-6.13,6.12v59a6.13,6.13,0,0,0,6.13,6.13h40.21a4.46,4.46,0,0,1,3.84,2.2l12.86,22a1.36,1.36,0,0,0,2.54-.69V189.34a4.44,4.44,0,0,1,4.44-4.44H311a6.13,6.13,0,0,0,6.13-6.13v-59A6.13,6.13,0,0,0,311,113.68Z" transform="translate(0 0)"/><path class="cls-7" d="M285.61,142.09A19.53,19.53,0,1,1,260.78,130,19.53,19.53,0,0,1,285.61,142.09Z" transform="translate(0 0)"/><path class="cls-1" d="M281.29,135a19.38,19.38,0,0,1,2.36,3c11-2.58,17.78-2.85,19.23-1.91-.83,2.39-12.41,9.93-34,17.38s-35.34,8.66-37.47,7.28c.56-1.62,6.09-5.62,16.31-10.35a19.71,19.71,0,0,1,0-3.84C237.41,151.2,226.4,157.32,228,162c2.87,8.31,40.45-4.55,42.05-5.1S309.17,143.26,306.3,135C304.69,130.3,292.24,132.27,281.29,135Z" transform="translate(0 0)"/><path class="cls-8" d="M419.2,414.87s15.55-38.88,63.22-66.94c0,0,12.17-31.72,29.6-42.75,5.83-3.69,13,2.4,10.44,8.82l-17.38,44.16h51.06Z" transform="translate(0 0)"/><path class="cls-7" d="M555.11,178.88c-3.89-28.2-28.4-64.46-75.73-64.46s-71.83,36.26-75.73,64.46c-3.83,27.72,3.38,43.73,17.13,66.27,15,24.65,20.74,58.6,20.74,58.6h75.73s5.69-33.95,20.73-58.6C551.73,222.61,558.94,206.6,555.11,178.88Z" transform="translate(0 0)"/><path class="cls-4" d="M479.38,302.3c-16.62,0-31.31-.79-39.89-2l7.56,52.12c.23,1.57,14.7,2.83,32.33,2.83s32.1-1.26,32.33-2.83l7.57-52.12C510.69,301.51,496,302.3,479.38,302.3Z" transform="translate(0 0)"/><ellipse class="cls-4" cx="479.38" cy="349.5" rx="20.62" ry="14.71"/><path class="cls-31" d="M499.52,238.16l3.53-24.23h0c.16-.94.31-1.9.45-2.89,2.63-18,1.44-35.71-3.22-35.71-2.89,0-6,7.22-8.15,17.28-.77-10.06-2.87-17.28-5.76-17.28s-5.49,7.22-7,17.28c-1.46-10.06-4.07-17.28-7-17.28s-5,7.22-5.76,17.28c-2.16-10.06-5.26-17.28-8.15-17.28-4.66,0-5.84,17.73-3.22,35.71.14,1,.29,2,.45,2.89h0l3.5,24.23" transform="translate(0 0)"/><line class="cls-32" x1="444.23" y1="98" x2="429.93" y2="58.72"/><line class="cls-32" x1="413.32" y1="115.85" x2="386.45" y2="83.82"/><line class="cls-32" x1="390.37" y1="143.19" x2="354.17" y2="122.29"/><line class="cls-32" x1="378.16" y1="176.73" x2="337" y2="169.47"/><line class="cls-32" x1="479.38" y1="50" x2="479.38" y2="91.8"/><line class="cls-32" x1="528.83" y1="58.72" x2="514.53" y2="98"/><line class="cls-32" x1="572.31" y1="83.82" x2="545.45" y2="115.85"/><line class="cls-32" x1="604.59" y1="122.29" x2="568.39" y2="143.19"/><line class="cls-32" x1="621.76" y1="169.47" x2="580.6" y2="176.73"/><path class="cls-1" d="M483.78,472.68V432.45l89-53.76a51.89,51.89,0,0,0,24.29-35.36L606,293.61a5.59,5.59,0,0,0-4.91-6.56c-5.23-.52-13,.92-18.88,11.51l.81-26.24a5.61,5.61,0,0,0-6.3-5.74l-1.89.24a21.28,21.28,0,0,0-18.64,21.12V332l-9.37-43a4.55,4.55,0,0,0-7.08-2.74l-3.23,2.29a23.79,23.79,0,0,0-9.55,24.19l8.26,40.37-23.41-37.54a3.72,3.72,0,0,0-5.93-.51h0A17.83,17.83,0,0,0,503,334.59l12.21,25.84L497.3,377s-86.89,7.1-86.89,57.81v37.87Z" transform="translate(0 0)"/><polygon class="cls-4" points="410.41 453.07 483.78 458.48 483.78 472.68 410.41 472.68 410.41 453.07"/><path class="cls-33" d="M536.71,355.26,538,357a12.88,12.88,0,0,1-1.51,17l-33.45,31.61" transform="translate(0 0)"/><path class="cls-33" d="M557.14,338.46l1.16,5.46a35.47,35.47,0,0,1-9.65,32.41l-25.42,25.36" transform="translate(0 0)"/><path class="cls-33" d="M582.16,302.62l-1.11,41.5a39.18,39.18,0,0,1-14,29l-23.19,19.42" transform="translate(0 0)"/><rect class="cls-2" x="397.9" y="462.2" width="108.19" height="41.58"/><rect class="cls-4" x="393.12" y="495.03" width="117.75" height="54.97"/><line class="cls-34" x1="461.85" y1="534.17" x2="461.85" y2="495.03"/><path class="cls-34" d="M480.81,506.71a5.75,5.75,0,1,1-5.74-5.74A5.74,5.74,0,0,1,480.81,506.71Z" transform="translate(0 0)"/><path class="cls-34" d="M480.81,527.26a5.75,5.75,0,1,1-5.74-5.74A5.74,5.74,0,0,1,480.81,527.26Z" transform="translate(0 0)"/><polygon class="cls-2" points="305 354.89 281.2 418.66 369.33 418.66 393.13 354.89 305 354.89"/><line class="cls-35" x1="309.52" y1="354.89" x2="285.72" y2="418.66"/><path class="cls-36" d="M352.85,383.08c-1.62,6.22-8,11.27-14.21,11.27s-9.95-5.05-8.33-11.27,8-11.27,14.22-11.27S354.48,376.85,352.85,383.08Z" transform="translate(0 0)"/><polygon class="cls-1" points="322.88 400.37 324.73 419.01 369.33 419.01 348.64 400.37 322.88 400.37"/><polygon class="cls-2" points="348.64 400.37 362.56 437.66 336.79 437.66 322.88 400.37 348.64 400.37"/><line class="cls-35" x1="325.64" y1="400.37" x2="340.01" y2="437.96"/><path class="cls-1" d="M718.72,160c0-17.65-17.24-32-38.52-32s-38.53,14.31-38.53,32c0,13.79,10.53,25.54,25.28,30a13.59,13.59,0,0,1,8.31,7.38L680.2,208l4.93-10.63a13.64,13.64,0,0,1,8.31-7.38C708.2,185.5,718.72,173.75,718.72,160Z" transform="translate(0 0)"/><path class="cls-6" d="M666.05,159.55a3.49,3.49,0,1,1-3.49-3.49A3.49,3.49,0,0,1,666.05,159.55Z" transform="translate(0 0)"/><path class="cls-6" d="M677.81,159.55a3.49,3.49,0,1,1-3.49-3.49A3.49,3.49,0,0,1,677.81,159.55Z" transform="translate(0 0)"/><path class="cls-6" d="M689.57,159.55a3.49,3.49,0,1,1-3.49-3.49A3.49,3.49,0,0,1,689.57,159.55Z" transform="translate(0 0)"/><path class="cls-6" d="M701.33,159.55a3.49,3.49,0,1,1-3.49-3.49A3.49,3.49,0,0,1,701.33,159.55Z" transform="translate(0 0)"/></g></svg>